<svg id="_02_logo" data-name="02_logo" xmlns="http://www.w3.org/2000/svg" width="160" height="46.559" viewBox="0 0 160 46.559">
  <g id="그룹_74" data-name="그룹 74" transform="translate(0 0)">
    <g id="그룹_73" data-name="그룹 73">
      <g id="그룹_71" data-name="그룹 71">
        <path id="패스_140" data-name="패스 140" d="M1711.474,531.175l10.515-10.516v0l2.794-2.794-5.5-1.835Z" transform="translate(-1711.474 -495.342)" fill="#004897"/>
        <path id="패스_141" data-name="패스 141" d="M1732.166,493.354l-4.253-4.249h0l-6.4-6.4,5.157,8.814,5.5,1.835h0Z" transform="translate(-1718.857 -470.817)" fill="#2276bd"/>
        <g id="그룹_70" data-name="그룹 70" transform="translate(7.554)">
          <path id="패스_142" data-name="패스 142" d="M1753.348,437.19l-10.515,10.516V447.7l-2.8,2.794,5.5,1.835Z" transform="translate(-1740.036 -437.19)" fill="#2276bd"/>
          <path id="패스_143" data-name="패스 143" d="M1740.036,487.5l4.255,4.255v-.008l6.4,6.4-5.153-8.816-5.5-1.835,0,0Z" transform="translate(-1740.036 -474.207)" fill="#004897"/>
        </g>
      </g>
      <g id="그룹_72" data-name="그룹 72" transform="translate(24.802 8.646)">
        <path id="패스_144" data-name="패스 144" d="M2191.856,487.5h4.642a7.888,7.888,0,0,0-2.263-.26A9.226,9.226,0,0,0,2191.856,487.5Z" transform="translate(-2090.67 -482.829)" fill="#1a1818"/>
        <path id="패스_145" data-name="패스 145" d="M1812.691,476.289h13.862L1827.5,472h-17.272l-.946,4.3h3.412Z" transform="translate(-1809.277 -471.616)" fill="#1a1818"/>
        <path id="패스_146" data-name="패스 146" d="M1819.965,509.329h4.741l3-13.633h-4.74Z" transform="translate(-1817.138 -489.048)" fill="#1a1818"/>
        <path id="패스_147" data-name="패스 147" d="M1897.967,472h-5.129l-2.809,4.292h8.863Z" transform="translate(-1868.672 -471.616)" fill="#1a1818"/>
        <path id="패스_148" data-name="패스 148" d="M1867.4,501.408h-6.07l3.644-5.712h-4.7l-8.939,13.633h4.934l2.475-3.863h9.482l.767,3.863h4.785l-2.924-13.633h-4.6Z" transform="translate(-1840.213 -489.048)" fill="#1a1818"/>
        <path id="패스_149" data-name="패스 149" d="M1966.724,472h-8.245a14.456,14.456,0,0,0-3.523.4,6.445,6.445,0,0,0-2.787,1.495,8.875,8.875,0,0,0-1.808,2.4h15.421Z" transform="translate(-1913.048 -471.616)" fill="#1a1818"/>
        <path id="패스_150" data-name="패스 150" d="M1941.364,499.4a21.574,21.574,0,0,0-.627,5.036,5.643,5.643,0,0,0,.8,3.023,3.7,3.7,0,0,0,2.125,1.484,12.4,12.4,0,0,0,3.347.389h8.253l.965-4.381H1948a3.827,3.827,0,0,1-1.439-.229,1.426,1.426,0,0,1-.805-.845,4.089,4.089,0,0,1-.172-1.7,19.72,19.72,0,0,1,.444-2.772,20.858,20.858,0,0,1,.781-2.779,7.549,7.549,0,0,1,.41-.922h-4.816A29.339,29.339,0,0,0,1941.364,499.4Z" transform="translate(-1905.966 -489.047)" fill="#1a1818"/>
        <path id="패스_151" data-name="패스 151" d="M2074.527,472h-4.738l-.945,4.292h4.74Z" transform="translate(-2000.193 -471.616)" fill="#1a1818"/>
        <path id="패스_152" data-name="패스 152" d="M2024.693,472h-4.743l-.942,4.292h4.741Z" transform="translate(-1963.538 -471.616)" fill="#1a1818"/>
        <path id="패스_153" data-name="패스 153" d="M2112.931,496.584l-.362-.888h-5.2l2.162,4.867-1.929,8.766h4.74l1.923-8.708,4.382-4.924h-5.027Z" transform="translate(-2028.528 -489.048)" fill="#1a1818"/>
        <path id="패스_154" data-name="패스 154" d="M2146.217,472h-5.127l-3.822,4.292h5.129Z" transform="translate(-2050.521 -471.616)" fill="#1a1818"/>
        <path id="패스_155" data-name="패스 155" d="M2103.955,476.289l-1.91-4.292h-5.2l1.9,4.292Z" transform="translate(-2020.787 -471.616)" fill="#1a1818"/>
        <path id="패스_156" data-name="패스 156" d="M2173.8,475.231a9.223,9.223,0,0,1,2.38-.261,7.888,7.888,0,0,1,2.263.261h6.5a5.248,5.248,0,0,0-.673-2.318,4.368,4.368,0,0,0-2.474-1.8,15.659,15.659,0,0,0-4.641-.556,18.346,18.346,0,0,0-4.89.556,7.764,7.764,0,0,0-3.261,1.8,8.557,8.557,0,0,0-1.7,2.318Z" transform="translate(-2072.611 -470.558)" fill="#1a1818"/>
        <path id="패스_157" data-name="패스 157" d="M2173.028,496.591a21.065,21.065,0,0,1-.451,2.806,21.815,21.815,0,0,1-.786,2.8,5.222,5.222,0,0,1-1.08,1.837,3.71,3.71,0,0,1-1.661,1,8.988,8.988,0,0,1-2.521.3,7.65,7.65,0,0,1-2.391-.3,2.038,2.038,0,0,1-1.219-1,3.51,3.51,0,0,1-.272-1.837,20.5,20.5,0,0,1,.448-2.8,21.051,21.051,0,0,1,.786-2.806,6.414,6.414,0,0,1,.411-.9h-4.84a33.088,33.088,0,0,0-1.026,3.7,26.352,26.352,0,0,0-.681,4.79,5.731,5.731,0,0,0,.7,3.2,4.319,4.319,0,0,0,2.474,1.8,15.444,15.444,0,0,0,4.637.558,18.141,18.141,0,0,0,4.89-.558,7.693,7.693,0,0,0,3.262-1.8,9.09,9.09,0,0,0,2.109-3.2,29.122,29.122,0,0,0,1.428-4.79,29.567,29.567,0,0,0,.6-3.7h-4.836A4.563,4.563,0,0,1,2173.028,496.591Z" transform="translate(-2065.579 -489.047)" fill="#1a1818"/>
        <path id="패스_158" data-name="패스 158" d="M2305.646,472h-4.38l-.946,4.292h4.382Z" transform="translate(-2170.448 -471.616)" fill="#1a1818"/>
        <path id="패스_159" data-name="패스 159" d="M2252.47,472h-5.613l-.943,4.292h8.283Z" transform="translate(-2130.431 -471.616)" fill="#1a1818"/>
        <path id="패스_160" data-name="패스 160" d="M2248.58,503.529l-3.156-7.833h-9.51l-3,13.633h4.4l3-13.613,5.615,13.613h5.758l3-13.633h-4.379Z" transform="translate(-2120.867 -489.048)" fill="#1a1818"/>
        <path id="패스_161" data-name="패스 161" d="M2128.085,495.7h-1.05l.362.888Z" transform="translate(-2042.993 -489.048)" fill="#1a1818"/>
        <path id="패스_162" data-name="패스 162" d="M2022.234,495.7H2009l-3,13.633h4.741l1.709-7.756h0l.4-1.825h8.438l-.4,1.825h0l-1.712,7.756h4.743l3-13.633Z" transform="translate(-1953.967 -489.048)" fill="#1a1818"/>
      </g>
    </g>
  </g>
  <g id="그룹_75" data-name="그룹 75" transform="translate(27.613 36.874)">
    <path id="패스_163" data-name="패스 163" d="M1819.907,585.04c0-.065.065-.092.111-.028a2.37,2.37,0,0,0,1.832.764c1.1,0,1.777-.524,1.777-1.436,0-.81-.626-1.142-1.437-1.483l-.672-.285c-.884-.368-1.529-.792-1.529-1.777,0-1.1.939-1.657,2.154-1.657a2.977,2.977,0,0,1,1.7.515v.507c0,.065-.055.083-.1.037a2.374,2.374,0,0,0-1.565-.626c-.939,0-1.676.424-1.676,1.206,0,.727.654,1.086,1.326,1.363l.663.267c1.141.469,1.676,1.04,1.685,1.9,0,1.2-.912,1.952-2.348,1.952a2.692,2.692,0,0,1-1.924-.663Z" transform="translate(-1819.907 -578.779)" fill="#1a1818"/>
    <path id="패스_164" data-name="패스 164" d="M1844.28,588.849v.157h-3.8v.193c.037,1.243.636,1.961,1.887,1.961a2.618,2.618,0,0,0,1.611-.544c.064-.055.1-.046.1.037v.5a2.816,2.816,0,0,1-1.814.5,2.343,2.343,0,0,1-2.412-2.55,2.39,2.39,0,0,1,2.339-2.615C1843.543,586.482,1844.28,587.348,1844.28,588.849Zm-.589-.23c0-1.077-.562-1.721-1.52-1.721a1.745,1.745,0,0,0-1.685,1.721Z" transform="translate(-1834.576 -584.18)" fill="#1a1818"/>
    <path id="패스_165" data-name="패스 165" d="M1863.292,590.718v.506a2.381,2.381,0,0,1-1.418.424,2.333,2.333,0,0,1-2.532-2.55,2.383,2.383,0,0,1,2.513-2.615,2.548,2.548,0,0,1,1.4.433v.534c0,.083-.083.073-.111.027a1.675,1.675,0,0,0-1.28-.552,1.958,1.958,0,0,0-1.952,2.164,1.9,1.9,0,0,0,2.026,2.108,1.822,1.822,0,0,0,1.261-.516C1863.246,590.644,1863.292,590.634,1863.292,590.718Z" transform="translate(-1848.912 -584.18)" fill="#1a1818"/>
    <path id="패스_166" data-name="패스 166" d="M1877.336,586.866h.516v2.919c0,1.252.57,1.7,1.325,1.7a1.829,1.829,0,0,0,1.7-1.832v-2.79h.525v4.981h-.47l-.046-.976h-.009a1.916,1.916,0,0,1-1.74,1.059,1.7,1.7,0,0,1-1.308-.479,2.239,2.239,0,0,1-.5-1.6Z" transform="translate(-1862.147 -584.463)" fill="#1a1818"/>
    <path id="패스_167" data-name="패스 167" d="M1898.815,588.646v2.9h-.525v-4.962h.488l.018.912h.009a1.9,1.9,0,0,1,1.611-1.013,1.425,1.425,0,0,1,.6.129v.47c0,.064-.055.083-.1.046a.868.868,0,0,0-.543-.147A1.593,1.593,0,0,0,1898.815,588.646Z" transform="translate(-1877.559 -584.18)" fill="#1a1818"/>
    <path id="패스_168" data-name="패스 168" d="M1911.9,578.859a.419.419,0,0,1,.424.432.409.409,0,0,1-.424.415.4.4,0,0,1-.423-.415A.408.408,0,0,1,1911.9,578.859Zm.249,2.118v4.981h-.534v-4.981Z" transform="translate(-1887.261 -578.574)" fill="#1a1818"/>
    <path id="패스_169" data-name="패스 169" d="M1920.614,588.217a1.5,1.5,0,0,1-.884.23c-.8,0-1.261-.331-1.261-1.243v-3.388h-.966v-.433h.966v-1.252h.525v1.252h1.445v.433h-1.445v3.342c0,.6.147.865.727.865a1.335,1.335,0,0,0,.8-.221c.064-.046.092-.028.092.037Z" transform="translate(-1891.69 -580.98)" fill="#1a1818"/>
    <path id="패스_170" data-name="패스 170" d="M1930.339,593.7c0-.055.027-.073.082-.055a1.483,1.483,0,0,0,.424.055c.469,0,.8-.184,1.142-.994l.322-.8v-.028l-2.173-5.009h.571l1.593,3.775.286.654.24-.654,1.363-3.775h.57l-2.182,5.7c-.4,1.031-.791,1.584-1.749,1.584a1.206,1.206,0,0,1-.488-.074Z" transform="translate(-1900.982 -584.463)" fill="#1a1818"/>
    <path id="패스_171" data-name="패스 171" d="M1959.165,586.495v-6.906h2.339c1.206,0,1.878.7,1.878,1.528a1.478,1.478,0,0,1-1.261,1.593v.018a1.732,1.732,0,0,1,1.611,1.731,1.993,1.993,0,0,1-2.265,2.035Zm.506-6.473v2.513h1.381c1,0,1.823-.359,1.823-1.3,0-.783-.534-1.215-1.566-1.215Zm0,2.955v3.075h1.657c1.271,0,1.9-.681,1.9-1.6s-.773-1.473-2.09-1.473Z" transform="translate(-1922.334 -579.111)" fill="#1a1818"/>
    <path id="패스_172" data-name="패스 172" d="M1983.711,588.849v.157h-3.8v.193c.037,1.243.635,1.961,1.888,1.961a2.618,2.618,0,0,0,1.611-.544c.064-.055.1-.046.1.037v.5a2.818,2.818,0,0,1-1.814.5,2.343,2.343,0,0,1-2.412-2.55,2.39,2.39,0,0,1,2.339-2.615C1982.974,586.482,1983.711,587.348,1983.711,588.849Zm-.589-.23c0-1.077-.562-1.721-1.519-1.721a1.745,1.745,0,0,0-1.685,1.721Z" transform="translate(-1937.13 -584.18)" fill="#1a1818"/>
    <path id="패스_173" data-name="패스 173" d="M2002.358,590.662h-.037a1.973,1.973,0,0,1-1.713.838c-1.151,0-2.044-.764-2.044-2.486,0-1.611.884-2.532,2.1-2.532a1.707,1.707,0,0,1,1.63.93h.018l.028-.828h.516V591.2c0,1.906-.681,2.624-2.412,2.624a3.182,3.182,0,0,1-1.538-.359v-.543c0-.055.028-.064.074-.028a2.278,2.278,0,0,0,1.464.516c1.353,0,1.915-.645,1.915-2.219Zm-.018-2.081a1.6,1.6,0,0,0-1.584-1.639c-.93,0-1.639.737-1.639,2.1,0,1.409.654,1.989,1.537,1.989a1.562,1.562,0,0,0,1.685-1.5Z" transform="translate(-1951.312 -584.18)" fill="#1a1818"/>
    <path id="패스_174" data-name="패스 174" d="M2020.812,578.859a.419.419,0,0,1,.424.432.409.409,0,0,1-.424.415.4.4,0,0,1-.424-.415A.408.408,0,0,1,2020.812,578.859Zm.249,2.118v4.981h-.534v-4.981Z" transform="translate(-1967.364 -578.574)" fill="#1a1818"/>
    <path id="패스_175" data-name="패스 175" d="M2033.175,591.565h-.524v-2.928c0-1.252-.479-1.694-1.244-1.694a1.876,1.876,0,0,0-1.759,1.833v2.79h-.525v-4.981h.47l.046,1.022h.009a2.06,2.06,0,0,1,1.8-1.124c1.068,0,1.731.654,1.731,2.1Z" transform="translate(-1973.79 -584.18)" fill="#1a1818"/>
    <path id="패스_176" data-name="패스 176" d="M2050.094,591.178c.782,0,1.325-.249,1.325-.93,0-.377-.368-.672-.957-.884l-.59-.23c-.911-.331-1.326-.681-1.326-1.409,0-.635.589-1.243,1.685-1.243a2.744,2.744,0,0,1,1.519.405v.506c0,.074-.055.083-.1.037a2.179,2.179,0,0,0-1.473-.507c-.581,0-1.077.313-1.077.792s.386.737.865.912l.617.23c.865.35,1.4.654,1.4,1.427,0,.857-.708,1.363-1.823,1.363a3.622,3.622,0,0,1-1.786-.442v-.516c0-.064.046-.083.092-.046A2.641,2.641,0,0,0,2050.094,591.178Z" transform="translate(-1987.947 -584.18)" fill="#1a1818"/>
    <path id="패스_177" data-name="패스 177" d="M2075.72,586.866l1.243,4.079.111.46.119-.46,1.123-4.079h.516l-1.427,4.981h-.617l-1.261-4.134-.073-.295-.074.295-1.261,4.134h-.617l-1.427-4.981h.516l1.123,4.079.12.46.111-.46,1.243-4.079Z" transform="translate(-2005.38 -584.463)" fill="#1a1818"/>
    <path id="패스_178" data-name="패스 178" d="M2101.665,578.859a.419.419,0,0,1,.423.432.409.409,0,0,1-.423.415.4.4,0,0,1-.424-.415A.408.408,0,0,1,2101.665,578.859Zm.249,2.118v4.981h-.534v-4.981Z" transform="translate(-2026.833 -578.574)" fill="#1a1818"/>
    <path id="패스_179" data-name="패스 179" d="M2110.373,588.217a1.5,1.5,0,0,1-.884.23c-.8,0-1.261-.331-1.261-1.243v-3.388h-.967v-.433h.967v-1.252h.524v1.252h1.446v.433h-1.446v3.342c0,.6.148.865.728.865a1.334,1.334,0,0,0,.8-.221c.064-.046.092-.028.092.037Z" transform="translate(-2031.26 -580.98)" fill="#1a1818"/>
    <path id="패스_180" data-name="패스 180" d="M2126.47,585.164h-.525v-2.919c0-1.252-.478-1.7-1.233-1.7a1.886,1.886,0,0,0-1.75,1.851v2.772h-.525V577.78h.516v3.434h.009a2.065,2.065,0,0,1,1.787-1.133c1.077,0,1.722.645,1.722,2.108Z" transform="translate(-2042.423 -577.78)" fill="#1a1818"/>
    <path id="패스_181" data-name="패스 181" d="M2151.359,586.495h-.516V580.04h-2.477v-.451h5.451v.451h-2.458Z" transform="translate(-2061.495 -579.111)" fill="#1a1818"/>
    <path id="패스_182" data-name="패스 182" d="M2171.052,579.52l2.5,6.924h-.571l-.746-2.109h-3.02l-.746,2.109h-.571l2.5-6.924Zm-.175,1.013-.157-.525-.156.525-1.225,3.388h2.762Z" transform="translate(-2075.857 -579.06)" fill="#1a1818"/>
    <path id="패스_183" data-name="패스 183" d="M2195.156,585.128v.571a3.028,3.028,0,0,1-2.1.709c-1.97,0-3.13-1.381-3.13-3.545a3.239,3.239,0,0,1,3.222-3.517,2.794,2.794,0,0,1,1.934.59v.515c0,.074-.074.074-.111.028a2.384,2.384,0,0,0-1.8-.681,2.786,2.786,0,0,0-2.707,3.029c0,2.063.985,3.112,2.67,3.112a2.391,2.391,0,0,0,1.906-.829C2195.082,585.046,2195.156,585.064,2195.156,585.128Z" transform="translate(-2092.063 -578.932)" fill="#1a1818"/>
    <path id="패스_184" data-name="패스 184" d="M2218.831,579.589v6.906h-.516V582.95h-3.858v3.545h-.516v-6.906h.516v2.9h3.858v-2.9Z" transform="translate(-2109.726 -579.111)" fill="#1a1818"/>
    <path id="패스_185" data-name="패스 185" d="M2238.769,586.471v-3.039l-2.412-3.876h.58l2.081,3.379h.018l2.081-3.379h.58l-2.413,3.876v3.039Z" transform="translate(-2126.213 -579.086)" fill="#1a1818"/>
    <path id="패스_186" data-name="패스 186" d="M2258.179,582.786c0-2.053,1.013-3.545,2.956-3.545,1.924,0,2.974,1.5,2.974,3.554s-1.05,3.527-2.974,3.527C2259.192,586.322,2258.179,584.848,2258.179,582.786Zm5.4.009c0-1.786-.847-3.1-2.449-3.1-1.583,0-2.422,1.317-2.422,3.1,0,1.759.838,3.057,2.422,3.057C2262.728,585.852,2263.575,584.554,2263.575,582.795Z" transform="translate(-2142.263 -578.855)" fill="#1a1818"/>
    <path id="패스_187" data-name="패스 187" d="M2290.063,586.034l-.009-.939v-5.506h.515v6.906h-.782l-3.066-5.552-.433-.893.009.939v5.506h-.515v-6.906h.782l3.066,5.552Z" transform="translate(-2162.565 -579.111)" fill="#1a1818"/>
  </g>
</svg>
